<?xml version="1.0" encoding="UTF-8"?>
<svg width="27px" height="27px" viewBox="0 0 27 27" version="1.1" xmlns="http://www.w3.org/2000/svg" xmlns:xlink="http://www.w3.org/1999/xlink">
    <!-- Generator: Sketch 51 (57462) - http://www.bohemiancoding.com/sketch -->
    <title>add-icon@3x</title>
    <desc>Created with Sketch.</desc>
    <defs></defs>
    <g id="Page-1" stroke="none" stroke-width="1" fill="none" fill-rule="evenodd">
        <g id="Dashboard" transform="translate(-823.000000, -156.000000)" fill-rule="nonzero" stroke="#FFFFFF" stroke-width="1.5">
            <g id="add-btn" transform="translate(804.000000, 147.000000)">
                <path d="M37,22.5 C37,22.7761424 36.7761424,23 36.5,23 L33,23 L33,26.5 C33,26.7761424 32.7761424,27 32.5,27 C32.2238576,27 32,26.7761424 32,26.5 L32,23 L28.5,23 C28.2238576,23 28,22.7761424 28,22.5 C28,22.2238576 28.2238576,22 28.5,22 L32,22 L32,18.5 C32,18.2238576 32.2238576,18 32.5,18 C32.7761424,18 33,18.2238576 33,18.5 L33,22 L36.5,22 C36.7761424,22 37,22.2238576 37,22.5 Z M45,22.5 C45,29.4035594 39.4035594,35 32.5,35 C25.5964406,35 20,29.4035594 20,22.5 C20,15.5964406 25.5964406,10 32.5,10 C35.8152061,10 38.99463,11.3169605 41.3388348,13.6611652 C43.6830395,16.00537 45,19.1847939 45,22.5 Z M44,22.5 C44,16.1487254 38.8512746,11 32.5,11 C26.1487254,11 21,16.1487254 21,22.5 C21,28.8512746 26.1487254,34 32.5,34 C38.8483276,33.9928908 43.9928908,28.8483276 44,22.5 Z" id="add-icon"></path>
            </g>
        </g>
    </g>
</svg>