<?xml version="1.0" encoding="UTF-8"?>
<svg width="21px" height="24px" viewBox="0 0 21 24" version="1.1" xmlns="http://www.w3.org/2000/svg" xmlns:xlink="http://www.w3.org/1999/xlink">
    <!-- Generator: Sketch 51 (57462) - http://www.bohemiancoding.com/sketch -->
    <title>Budicon-Outline/Interface/trash</title>
    <desc>Created with Sketch.</desc>
    <defs></defs>
    <g id="Symbols" stroke="none" stroke-width="1" fill="none" fill-rule="evenodd">
        <g id="Group-2" transform="translate(-234.000000, -21.000000)" fill="#000000" fill-rule="nonzero">
            <g id="Group">
                <g transform="translate(43.000000, 21.000000)">
                    <g id="Budicon-Outline/Interface/trash" transform="translate(189.000000, 0.000000)">
                        <path d="M22.5,3 L17.75,3 L17.2841,1.1362 C17.117165,0.468453106 16.5171973,6.70384174e-06 15.8289,0 L9.1711,0 C8.48280266,6.70384174e-06 7.88283505,0.468453106 7.7159,1.1362 L7.25,3 L2.5,3 C2.22385763,3 2,3.22385763 2,3.5 C2,3.77614237 2.22385763,4 2.5,4 L4.05,4 L4.9785,22.5757 C5.0188233,23.3736904 5.67759146,24.0000061 6.4766,24 L18.5742,24 C19.3735375,23.999926 20.032393,23.3730457 20.0722,22.5747 L21.0008,4 L22.5,4 C22.7761424,4 23,3.77614237 23,3.5 C23,3.22385763 22.7761424,3 22.5,3 Z M8.6861,1.3789 C8.74145129,1.15613086 8.94155738,0.999800557 9.1711,1 L15.8288,1 C16.058355,0.999764555 16.2584806,1.15611014 16.3138,1.3789 L16.7192,3 L8.2808,3 L8.6861,1.3789 Z M19.0742,22.5239 C19.0609861,22.7904617 18.841089,22.9998478 18.5742,23 L6.4766,23 C6.21005829,22.9999254 5.99027835,22.7910905 5.9766,22.5249 L5.0508,4 L20,4 L19.0742,22.5239 Z M9,17.5 L9,9.5 C9,9.22385763 9.22385763,9 9.5,9 C9.77614237,9 10,9.22385763 10,9.5 L10,17.5 C10,17.7761424 9.77614237,18 9.5,18 C9.22385763,18 9,17.7761424 9,17.5 Z M15,17.5 L15,9.5 C15,9.22385763 15.2238576,9 15.5,9 C15.7761424,9 16,9.22385763 16,9.5 L16,17.5 C16,17.7761424 15.7761424,18 15.5,18 C15.2238576,18 15,17.7761424 15,17.5 Z M12,18.5 L12,8.5 C12,8.22385763 12.2238576,8 12.5,8 C12.7761424,8 13,8.22385763 13,8.5 L13,18.5 C13,18.7761424 12.7761424,19 12.5,19 C12.2238576,19 12,18.7761424 12,18.5 Z" id="Shape"></path>
                    </g>
                </g>
            </g>
        </g>
    </g>
</svg>