<?xml version="1.0" encoding="UTF-8"?>
<svg width="25px" height="25px" viewBox="0 0 25 25" version="1.1" xmlns="http://www.w3.org/2000/svg" xmlns:xlink="http://www.w3.org/1999/xlink">
    <!-- Generator: Sketch 51 (57462) - http://www.bohemiancoding.com/sketch -->
    <title>Budicon-Outline/Interface/ui-compose</title>
    <desc>Created with Sketch.</desc>
    <defs></defs>
    <g id="Symbols" stroke="none" stroke-width="1" fill="none" fill-rule="evenodd">
        <g id="Group-2" transform="translate(-43.000000, -21.000000)" fill="#000000" fill-rule="nonzero">
            <g id="Group">
                <g transform="translate(43.000000, 21.000000)">
                    <g id="Budicon-Outline/Interface/ui-compose">
                        <path d="M20,15.4997797 L20,23.4997797 C20,24.3282068 19.3284271,24.9997797 18.5,24.9997797 L1.5,24.9997797 C0.671572875,24.9997797 1.57303525e-15,24.3282068 0,23.4997797 L0,6.49977966 C-1.01453063e-16,5.67135254 0.671572875,4.99977966 1.5,4.99977966 L9.5,4.99977966 C9.77614237,4.99977966 10,5.22363728 10,5.49977966 C10,5.77592203 9.77614237,5.99977966 9.5,5.99977966 L1.5,5.99977966 C1.22385763,5.99977966 1,6.22363728 1,6.49977966 L1,23.4997797 C1,23.775922 1.22385763,23.9997797 1.5,23.9997797 L18.5,23.9997797 C18.7761424,23.9997797 19,23.775922 19,23.4997797 L19,15.4997797 C19,15.2236373 19.2238576,14.9997797 19.5,14.9997797 C19.7761424,14.9997797 20,15.2236373 20,15.4997797 Z M24.5606,4.68187966 L11.682,17.5602797 C11.4006746,17.8415969 11.0191484,17.9996819 10.6213,17.9997797 L8,17.9997797 C7.44771525,17.9997797 7,17.5520644 7,16.9997797 L7,14.3786797 C6.99992581,13.9807285 7.15799008,13.5990576 7.4394,13.3176797 L20.3181,0.43927966 C20.9038727,-0.146426553 21.8535273,-0.146426553 22.4393,0.43927966 L24.5606,2.56037966 C24.8419595,2.84169153 25.0000297,3.2232609 25.0000297,3.62112966 C25.0000297,4.01899842 24.8419595,4.40056779 24.5606,4.68187966 Z M22.0858,5.74247966 L19.2573,2.91387966 L8.1464,14.0246797 C8.05235184,14.1184395 7.99964781,14.2458796 8,14.3786797 L7.99999825,16.9997824 L10.6214,16.9997797 C10.7540897,17.0002172 10.8814179,16.947449 10.9749,16.8532797 L22.0858,5.74247966 Z M23.8534,3.26737966 L21.7322,1.14627966 C21.5369501,0.951088691 21.2204499,0.951088691 21.0252,1.14627966 L19.9644,2.20677966 L22.7929,5.03537966 L23.8534,3.97437966 C24.0486186,3.77915734 24.0486634,3.46265719 23.8535,3.26737966 L23.8534,3.26737966 Z" id="Shape"></path>
                    </g>
                </g>
            </g>
        </g>
    </g>
</svg>