<?xml version="1.0" encoding="UTF-8"?>
<svg width="14px" height="23px" viewBox="0 0 14 23" version="1.1" xmlns="http://www.w3.org/2000/svg" xmlns:xlink="http://www.w3.org/1999/xlink">
    <!-- Generator: Sketch 51 (57462) - http://www.bohemiancoding.com/sketch -->
    <title>Budicon-Outline/Interface/uploading-ui</title>
    <desc>Created with Sketch.</desc>
    <defs></defs>
    <g id="Symbols" stroke="none" stroke-width="1" fill="none" fill-rule="evenodd">
        <g id="Group-2" transform="translate(-112.000000, -21.000000)" fill="#000000" fill-rule="nonzero">
            <g id="Group">
                <g transform="translate(43.000000, 21.000000)">
                    <g id="Budicon-Outline/Interface/uploading-ui" transform="translate(63.000000, 0.000000)">
                        <path d="M16.4990186,22.499835 C16.4990186,22.7759774 16.275161,22.999835 15.9990186,22.999835 L9.99901863,22.999835 C9.72287625,22.999835 9.49901863,22.7759774 9.49901863,22.499835 C9.49901863,22.2236927 9.72287625,21.999835 9.99901863,21.999835 L15.9990186,21.999835 C16.275161,21.999835 16.4990186,22.2236927 16.4990186,22.499835 Z M19.4980186,8.99983505 L16.4990186,8.99983505 L16.4990186,19.499835 C16.4990186,20.3282622 15.8274458,20.999835 14.9990186,20.999835 L10.9990186,20.999835 C10.1705915,20.999835 9.49901863,20.3282622 9.49901863,19.499835 L9.49901863,8.99983505 L6.50001863,8.99983505 C6.30602921,8.99983991 6.12954443,8.88763661 6.04723949,8.71197276 C5.96493454,8.53630891 5.9916654,8.32889165 6.11581863,8.17983505 L12.6149186,0.179835046 C12.7099159,0.0658821984 12.8506118,-9.08019319e-18 12.9989686,0 C13.1473254,9.08019319e-18 13.2880213,0.0658821984 13.3830186,0.179835046 L19.8821186,8.17983505 C20.0062603,8.32887775 20.0329987,8.53627177 19.950719,8.71192749 C19.8684393,8.8875832 19.69199,8.99980112 19.4980186,8.99983505 Z M18.4480186,7.99983505 L12.9990186,1.29333505 L7.55031863,7.99983505 L10.4990186,7.99983505 L10.4990186,19.499835 C10.4990186,19.7759774 10.7228763,19.999835 10.9990186,19.999835 L14.9990186,19.999835 C15.275161,19.999835 15.4990186,19.7759774 15.4990186,19.499835 L15.4990186,7.99983505 L18.4480186,7.99983505 Z" id="Shape"></path>
                    </g>
                </g>
            </g>
        </g>
    </g>
</svg>